<?xml version="1.0" encoding="utf-8"?>
<!-- Generator: Adobe Illustrator 18.0.0, SVG Export Plug-In . SVG Version: 6.00 Build 0)  -->
<!DOCTYPE svg PUBLIC "-//W3C//DTD SVG 1.1//EN" "http://www.w3.org/Graphics/SVG/1.1/DTD/svg11.dtd">
<svg version="1.1" xmlns="http://www.w3.org/2000/svg" xmlns:xlink="http://www.w3.org/1999/xlink" x="0px" y="0px"
	 viewBox="0 0 566.9 566.9" enable-background="new 0 0 566.9 566.9" xml:space="preserve">
<g id="Layer_2" display="none">
	<polygon display="inline" fill="#3E454F" points="206.2,62.7 171.4,162.7 185.9,162.7 215.6,77.7 223.6,100.5 238.5,100.4 
		225.3,62.7 	"/>
	<polygon display="inline" fill="#1F88C9" points="228.1,62.7 271.4,62.7 265.7,80.1 234.5,80.1 	"/>
	<polygon display="inline" fill="#1F88C9" points="215.6,86 189.2,162.7 242.3,162.7 236.3,145 210,145 218.4,121.2 251.1,121.4 
		256.9,104 221.9,103.8 	"/>
	<polygon display="inline" fill="#3E454F" points="220.1,124.9 214.3,141.9 237.8,141.9 245.4,162.7 260.1,162.7 246.7,124.3 	"/>
</g>
<g id="Layer_4">
	<polygon fill="#1F88C9" stroke="#1F88C9" stroke-miterlimit="10" points="475.3,451.8 517.9,560.7 183.2,560.7 158.5,492.6 
		270.1,214.8 315.2,323.7 262.8,450.5 	"/>
	<polygon fill="#1F88C9" stroke="#1F88C9" stroke-miterlimit="10" points="414.8,387.8 359.9,387.8 260.3,140 95.1,560.7 3.1,560.7 
		224.5,3.3 300.3,3.3 402,259.4 462.5,260.6 	"/>
	<polygon fill="#1F88C9" points="380.8,157.9 395.7,124.5 517.9,124.5 564.3,3.3 354.8,3.3 338.2,43.5 	"/>
</g>
</svg>
